<?xml version="1.0" standalone="no"?>
<!DOCTYPE svg PUBLIC "-//W3C//DTD SVG 20010904//EN"
 "http://www.w3.org/TR/2001/REC-SVG-20010904/DTD/svg10.dtd">
<svg version="1.0" xmlns="http://www.w3.org/2000/svg"
 width="800.000000pt" height="800.000000pt" viewBox="0 0 800.000000 800.000000"
 preserveAspectRatio="xMidYMid meet">
<metadata>
Created by potrace 1.11, written by Peter Selinger 2001-2013
</metadata>
<g transform="translate(0.000000,800.000000) scale(0.100000,-0.100000)"
fill="#000000" stroke="none">
<path d="M3948 7966 c-29 -18 -114 -67 -188 -110 -74 -43 -142 -82 -150 -87
-14 -8 -458 -264 -545 -314 -22 -12 -416 -240 -875 -505 -459 -266 -855 -494
-880 -508 -25 -13 -49 -27 -55 -32 -5 -4 -30 -19 -55 -32 -25 -14 -182 -105
-350 -202 l-305 -176 0 -1999 -1 -1999 60 -33 c32 -19 71 -41 85 -49 42 -24
144 -83 172 -100 15 -8 92 -53 173 -100 80 -47 163 -95 183 -106 21 -12 196
-113 388 -224 193 -112 366 -212 385 -223 19 -10 87 -50 150 -87 98 -57 706
-408 810 -468 19 -11 89 -51 155 -89 66 -38 244 -141 395 -228 151 -87 292
-169 312 -182 21 -12 39 -23 42 -23 2 0 35 -19 72 -41 59 -36 72 -40 95 -32
15 6 146 79 290 164 145 84 282 163 304 175 22 12 90 51 152 87 62 36 132 77
155 90 58 33 269 156 288 167 8 6 119 69 245 141 127 73 244 140 260 149 17
10 111 64 210 121 99 57 182 106 185 109 3 3 15 10 26 15 12 6 316 180 676
388 l655 378 -1 2001 c-1 1768 -3 2002 -16 2009 -8 4 -175 100 -370 212 -195
113 -371 214 -390 224 -20 11 -92 53 -160 93 -69 40 -145 84 -169 97 -24 14
-104 61 -178 104 -75 43 -136 79 -138 79 -2 0 -76 43 -165 95 -89 52 -164 95
-165 95 -2 0 -40 23 -85 50 -45 28 -83 50 -85 50 -3 0 -484 277 -565 325 -14
8 -101 59 -193 112 -206 120 -181 106 -307 178 -58 33 -113 64 -122 70 -62 37
-210 121 -243 139 -22 11 -41 24 -43 29 -2 4 -10 7 -18 7 -8 0 -14 4 -14 9 0
22 -43 16 -92 -13z m280 -1867 c45 -27 85 -49 88 -49 3 0 18 -8 32 -19 15 -10
47 -29 72 -43 25 -14 128 -73 230 -133 102 -59 201 -117 220 -128 19 -10 94
-53 165 -95 72 -41 144 -83 160 -92 17 -10 154 -89 305 -177 151 -88 305 -176
342 -197 36 -20 71 -43 78 -51 17 -20 16 -2210 -1 -2231 -6 -7 -68 -46 -138
-86 -69 -40 -133 -77 -142 -83 -9 -5 -34 -20 -56 -32 -22 -12 -138 -79 -259
-149 -120 -70 -239 -138 -264 -152 -25 -14 -57 -33 -72 -43 -14 -11 -28 -19
-31 -19 -3 0 -72 -39 -153 -87 -82 -47 -169 -98 -194 -112 -36 -20 -244 -141
-408 -236 -9 -5 -55 -32 -101 -58 -46 -27 -91 -47 -101 -44 -10 2 -129 68
-264 146 -136 78 -261 150 -279 160 -18 10 -131 76 -252 146 -121 70 -240 139
-265 153 -25 14 -128 73 -230 132 -102 60 -204 118 -226 131 -279 159 -387
225 -396 242 -16 30 -15 2202 1 2221 7 8 202 124 433 258 499 288 501 290 609
351 46 26 100 57 119 69 19 11 172 99 340 195 168 97 329 190 359 208 l54 32
71 -40 c39 -22 108 -62 154 -88z"/>
<path d="M2712 4867 l-113 -113 1 -130 c1 -159 1 -156 -1 -200 0 -19 2 -38 5
-41 3 -4 55 42 114 102 l107 109 1 193 c0 106 0 193 0 193 -1 0 -52 -51 -114
-113z"/>
<path d="M3230 4532 l-45 -3 1 -637 c1 -350 2 -641 3 -647 1 -7 170 -10 486
-10 316 0 485 3 486 10 1 13 1 438 0 445 -1 3 -54 -48 -118 -112 l-118 -116
-257 1 -258 0 0 421 0 422 262 -1 263 0 0 -107 c0 -58 2 -109 5 -111 3 -3 54
43 113 102 l108 107 2 108 c1 59 -1 113 -4 118 -6 10 -805 18 -929 10z"/>
<path d="M4535 4530 l-60 -5 1 -635 c0 -350 3 -640 6 -645 4 -6 159 -10 411
-9 l404 0 114 112 c62 62 109 112 104 113 -6 0 -190 2 -410 2 l-400 2 -2 201
c-1 146 2 201 10 201 7 0 84 17 172 36 88 19 174 37 190 40 17 3 48 9 70 15
22 6 54 13 70 16 36 5 115 22 168 35 20 5 37 7 37 4 0 -3 6 0 14 6 12 10 14
58 14 261 l-1 250 -91 0 c-50 0 -242 1 -426 3 -184 1 -362 0 -395 -3z m680
-232 c6 -3 9 -27 7 -52 -3 -37 -8 -46 -23 -47 -10 -1 -22 -2 -26 -3 -16 -4
-119 -26 -143 -30 -14 -3 -79 -16 -145 -31 -66 -14 -134 -29 -151 -32 l-32 -5
1 104 0 104 251 -1 c138 0 256 -3 261 -7z"/>
<path d="M2697 4122 l-107 -107 2 -390 3 -389 103 -1 c57 0 107 2 111 5 8 6 9
990 1 990 -3 0 -53 -49 -113 -108z"/>
</g>
</svg>
