<svg xmlns="http://www.w3.org/2000/svg" xmlns:xlink="http://www.w3.org/1999/xlink" viewBox="0 0 3552.5 1374.02"><defs><style>.a{isolation:isolate;}.b{fill:url(#a);}.c{fill:url(#b);}.d{fill:url(#c);}.e{fill:url(#d);}.f{fill:url(#e);}.g{opacity:0.99;}.h{fill:url(#f);}.i{fill:url(#g);}.j{fill:url(#h);}.k{opacity:0.95;mix-blend-mode:soft-light;}.l{fill:url(#i);}.m{fill:url(#j);}.n{fill:url(#k);}.o{fill:url(#l);}.p{fill:url(#m);}.q{fill:url(#n);}.r{fill:url(#o);}.s{fill:url(#p);}.t{fill:url(#q);}.u,.v{mix-blend-mode:saturation;}.v{fill:url(#r);}.w{fill:url(#s);}.x{fill:url(#t);}.y{fill:url(#u);}.z{fill:url(#v);}.aa{fill:url(#w);}.ab{fill:url(#x);}.ac{fill:url(#y);}.ad{fill:url(#z);}.ae{fill:url(#aa);}.af{fill:url(#ab);}.ag{fill:url(#ac);}.ah{fill:url(#ad);}</style><linearGradient id="a" y1="687.02" x2="595" y2="687.02" gradientUnits="userSpaceOnUse"><stop offset="0" stop-color="#47bae2"/><stop offset="1" stop-color="#28b5db"/></linearGradient><linearGradient id="b" x1="309.94" y1="794.38" x2="449.85" y2="552.04" gradientUnits="userSpaceOnUse"><stop offset="0" stop-color="#005a82"/><stop offset="1" stop-color="#05b4c6"/></linearGradient><linearGradient id="c" x1="468.47" y1="826.88" x2="607.03" y2="586.88" xlink:href="#b"/><linearGradient id="d" x1="687.22" y1="824.63" x2="825.38" y2="585.33" xlink:href="#b"/><linearGradient id="e" y1="247.32" x2="595" y2="247.32" gradientUnits="userSpaceOnUse"><stop offset="0" stop-color="#5fd6f2"/><stop offset="1" stop-color="#0da9d3"/></linearGradient><linearGradient id="f" y1="762.99" x2="263.31" y2="762.99" gradientUnits="userSpaceOnUse"><stop offset="0" stop-color="#048aa0"/><stop offset="1" stop-color="#0db3ce"/></linearGradient><linearGradient id="g" x1="429.89" y1="1374.02" x2="429.89" y2="880.8" xlink:href="#f"/><linearGradient id="h" x1="263.55" y1="246.64" x2="595" y2="246.64" xlink:href="#f"/><linearGradient id="i" x1="20.95" y1="510.02" x2="570.8" y2="510.02" gradientUnits="userSpaceOnUse"><stop offset="0" stop-color="#00e7ff"/><stop offset="1" stop-color="#2bf"/></linearGradient><linearGradient id="j" x1="24.36" y1="1126.41" x2="596" y2="1126.41" xlink:href="#i"/><linearGradient id="k" x1="594.57" y1="687.01" x2="1190" y2="687.01" xlink:href="#e"/><linearGradient id="l" x1="893.9" y1="494.54" x2="893.9" y2="1.85" xlink:href="#e"/><linearGradient id="m" x1="926.7" y1="762.87" x2="1190" y2="762.87" xlink:href="#f"/><linearGradient id="n" x1="595" y1="1127.26" x2="925.87" y2="1127.26" xlink:href="#f"/><linearGradient id="o" x1="594.57" y1="246.83" x2="926.8" y2="246.83" xlink:href="#f"/><linearGradient id="p" x1="598.46" y1="510.09" x2="1183.46" y2="510.09" xlink:href="#i"/><linearGradient id="q" x1="595.99" y1="1126" x2="1163.11" y2="1126" xlink:href="#i"/><linearGradient id="r" x1="927.33" y1="684.48" x2="1189.83" y2="684.48" gradientUnits="userSpaceOnUse"><stop offset="0" stop-color="#023551"/><stop offset="1" stop-color="#034470"/></linearGradient><linearGradient id="s" x1="1286.93" y1="824.85" x2="1425.24" y2="585.28" xlink:href="#b"/><linearGradient id="t" x1="1515.02" y1="822.63" x2="1653.18" y2="583.33" xlink:href="#b"/><linearGradient id="u" x1="1699.33" y1="805.74" x2="1830.47" y2="578.6" xlink:href="#b"/><linearGradient id="v" x1="1962.69" y1="794.64" x2="2086.65" y2="579.95" xlink:href="#b"/><linearGradient id="w" x1="2121.13" y1="792.38" x2="2261.05" y2="550.04" xlink:href="#b"/><linearGradient id="x" x1="2279.67" y1="824.88" x2="2418.23" y2="584.88" xlink:href="#b"/><linearGradient id="y" x1="2498.42" y1="822.63" x2="2636.58" y2="583.33" xlink:href="#b"/><linearGradient id="z" x1="2704.22" y1="821.62" x2="2758.68" y2="727.3" xlink:href="#b"/><linearGradient id="aa" x1="2836.31" y1="824.88" x2="2974.87" y2="584.88" xlink:href="#b"/><linearGradient id="ab" x1="3049.24" y1="824.62" x2="3187.4" y2="585.32" xlink:href="#b"/><linearGradient id="ac" x1="3316.86" y1="850.8" x2="3480.05" y2="568.14" xlink:href="#b"/><linearGradient id="ad" x1="948.83" y1="723.21" x2="1167.78" y2="723.21" gradientUnits="userSpaceOnUse"><stop offset="0" stop-color="#e9fbff"/><stop offset="1" stop-color="#a0daea"/></linearGradient></defs><title>logo1</title><g class="a"><path class="b" d="M0,1031q0-344.5,0-689c2-.91,4-1.67,5.86-2.75Q294.24,172.83,582.61,6.37c4-2.31,7.71-5.3,12.39-6.35V304c-2.36,1.24-4.76,2.4-7.06,3.73Q429.05,399.5,270.12,491.17c-5.13,3-7.06,6.16-7.05,12.14q.25,183.49,0,367c0,6.33,2,9.81,7.47,13q135.66,78,271.12,156.33c17.75,10.24,35.6,20.31,53.4,30.46v304a42.17,42.17,0,0,1-4.55-2q-94.84-54.69-189.65-109.43-149.79-86.49-299.56-173Q50.59,1060.37,0,1031Z"/><path class="c" d="M390.15,646.11V818.3H351.37l-.19-133.22ZM353,623.66v-66.8l39-38.22V584.7Z"/><path class="d" d="M621.9,595.46v40.45l-39,38.22V634.24H492.57V779.52h90.36v-1.3l39-39v79H453.61V595.46Z"/><path class="e" d="M715,710.31v69.21H856.43L817.65,818.3H676.26V595.64h167v87.58Zm0-75.89v36l89.43-18.74V634.42Z"/><path class="f" d="M0,344q0-.5,0-1,74.87-43.28,149.73-86.56Q360.53,134.69,571.35,13C579.13,8.48,586.62,3.43,595,0V1a11.65,11.65,0,0,0-3.73,4.6q-22.46,40.4-45,80.77-47.69,85.54-95.42,171.07Q399.9,348.89,349,440.39a31,31,0,0,1-12.45,12.39q-35.18,20-70.16,40.44c-3.41,2-6,1.78-9.19-.07q-33-19.26-66.14-38.36-55.36-32-110.72-64.08Q40.17,367.4,0,344Z"/><g class="g"><path class="h" d="M0,1027c4.23-6.43,7.23-13.5,10.6-20.37C22,983.48,33.12,960.2,44.49,937c13.79-28.12,27.77-56.15,41.59-84.25q25-50.9,49.93-101.85l50.15-102.3c16.94-34.55,34.08-69,50.73-103.69,7.28-15.17,14.89-30.17,22.3-45.28.82-1.68,1.16-3.84,3.41-4.7,1.13,1.93.59,4,.59,5.86q0,186.19.06,372.39c0,5-1.82,7.85-6,10.27Q207.36,912,157.7,940.91q-65.28,37.78-130.55,75.58Q16.35,1022.74,5.57,1029A11,11,0,0,1,0,1031Z"/></g><path class="i" d="M595,1374c-2.87-1.41-4.19-4.22-5.84-6.69q-53.91-80.6-107.79-161.22-59.08-88.26-118.24-176.47-31.83-47.56-63.53-95.2c-10.74-16.07-21.6-32-32.35-48.11-1.05-1.57-2.77-2.95-2.41-5.26,1.77-.88,2.87.48,4.07,1.18q136.36,78.66,272.7,157.35c17.74,10.23,35.59,20.28,53.39,30.42Z"/><path class="j" d="M595,304c-19.66,11.25-39.36,22.45-59,33.77q-106.32,61.29-212.6,122.65-26.63,15.36-53.27,30.7a29.23,29.23,0,0,1-3.1,1.62c-1.07.45-2.32.95-3.19-.23-.68-.92-.09-1.94.42-2.79.77-1.28,1.61-2.53,2.44-3.78q40.61-60.65,81.23-121.3,54.69-81.61,109.42-163.19Q498,140.83,538.58,80.16,563.21,43.4,587.91,6.69C589.76,3.94,591.41.94,595,0Z"/><g class="k"><path class="l" d="M570.8,35.72c-5.85,8.63-11.73,17.24-17.54,25.9q-31.47,46.9-62.9,93.83L359.3,351q-32,47.75-64,95.5c-7.15,10.65-15.12,20.83-21.4,32-11.44,20.28-21.91,41.11-32.76,61.73-.77,1.47-1.29,3.07-2,4.56Q215.05,593.41,191,642q-27.72,56.26-55.31,112.6-26,52.94-52,105.89Q57.66,913.67,31.61,966.86c-1.9,3.88-3.31,8-5.15,11.92-1.06,2.25-2.52,4.32-3.8,6.46l-1.7-.87c1.73-4.18,3.4-8.38,5.19-12.53q29-67.46,58.09-134.91Q110.89,775,137.5,713q27.88-65,55.69-130c14.3-33.37,28-67,43.21-100,5.29-11.44,14.12-21.32,21.77-31.58q62.39-83.76,125-167.36,44.85-60.06,89.6-120.2Q519.37,101.44,566,39c1.07-1.44,2.25-2.79,3.39-4.18Z"/></g><g class="k"><path class="m" d="M596,1373.66c-6.12-2.75-8.25-9-11.78-13.89q-57.52-79.56-114.7-159.38-58.88-82-117.71-164-44.61-62.08-89.35-124.06c-5.51-7.63-5.7-7.52-14.19-3.33q-63,31-126,62-44,21.58-88,43c-3.14,1.52-5.81,4.37-9.86,4.43.16-2.6,2.09-2.85,3.42-3.62q33.72-19.52,67.47-39,57.48-33.34,114.9-66.76,23.75-13.81,47.47-27.69c5.66-3.3,6.35-3.2,10,2.23,14.45,21.61,28.81,43.28,43.29,64.87q48.57,72.45,97.22,144.85,46.95,69.93,93.9,139.85,44,65.56,88.09,131.11c1.76,2.62,3.46,5.31,5.9,7.39Z"/></g><path class="n" d="M595,1374V1070c6.84-2.74,12.89-6.94,19.23-10.6q153.48-88.62,307-177.24c4.12-2.38,5.73-5.11,5.73-9.89q-.19-185.24,0-370.48c0-4.77-1.55-7.46-5.71-9.86Q788,415.22,654.89,338.23C635,326.74,615,315.42,595,304q0-150,.1-300c0-1.25-2.07-4.31,1.9-4,2.25,1.42,4.46,2.91,6.76,4.24Q881.18,164.42,1158.63,324.5c10.37,6,20.42,12.57,31.37,17.52v690c-1.81.83-3.71,1.51-5.42,2.5q-122.14,70.4-244.24,140.85-152.43,87.91-304.89,175.76C622,1358.87,608.87,1367.09,595,1374Z"/><path class="o" d="M1190,345q-34.64,19.94-69.27,39.88-56.9,32.82-113.77,65.69C983,464.43,959,478.18,935.27,492.28c-4.9,2.9-8.51,3.09-13.54.08-22-13.17-44.1-26.25-66.64-38.48-8.34-4.53-12.51-11.5-16.74-19.05C827,414.53,815.46,394.32,804.13,374c-15.4-27.57-30.63-55.24-46-82.82-16.47-29.51-33.07-59-49.56-88.46Q688,165.89,667.49,129q-20.9-37.53-41.84-75Q612.76,30.83,599.88,7.7C599,6,597.63,4.38,597.82,1.85c2.52,0,4.32,1.68,6.2,2.77q79,45.5,158,91.1,90,51.94,180.08,103.9,91.32,52.72,182.62,105.5Q1157.41,324,1190,343Z"/><g class="g"><path class="p" d="M1190,1031c-11.06-4.72-21.19-11.17-31.56-17.13q-65.4-37.6-130.64-75.47-48.67-28.12-97.38-56.16a6.49,6.49,0,0,1-3.72-6.35q.12-188.48.08-377c0-1.29.16-2.57.26-4.24,2.33.86,2.74,2.78,3.49,4.29q22,44.34,43.87,88.72,24.82,50.45,49.5,101l51.47,105q24.85,50.72,49.69,101.44,25.17,51.39,50.32,102.8c4.88,10,8.69,20.56,14.62,30.07Z"/></g><path class="q" d="M595,1070c15.27-7.82,29.86-16.86,44.71-25.41q93.51-53.87,186.92-107.92Q874,909.33,921.41,882c1.26-.73,2.43-1.82,4.16-1.44.94,1.76-.54,2.8-1.29,3.93q-44.56,66.69-89.18,133.33-29.47,44-59,88L652.88,1289.71q-26.15,39-52.34,78c-1.57,2.33-2.88,4.92-5.54,6.3Z"/><path class="r" d="M597,0c15.51,21.08,29.35,43.29,43.94,65,28.74,42.72,57.26,85.57,85.94,128.33q40.78,60.81,81.68,121.55,40.29,59.94,80.6,119.87,17,25.3,34.06,50.58c.47.69,1,1.36,1.38,2.09.92,1.69,3.22,3.47,1.71,5.29-1.83,2.21-4,0-5.75-1q-35.54-20.4-71-40.94L625.44,321.2C615.35,315.37,605.49,309.13,595,304q0-150,.1-300C595.1,2.76,593.06-.29,597,0Z"/><g class="k"><path class="s" d="M1183.1,1016.11c-2.48-.39-2.77-2.48-3.52-4Q1145,942,1110.42,871.8c-11.68-23.77-23.1-47.67-34.77-71.44-14.84-30.21-29.86-60.33-44.72-90.52Q1004.43,656,978.08,602.16c-17.8-36.36-35-73-53.57-109C917.15,478.9,907,466,898,452.6Q866.23,405,834.32,357.51L768.1,258.67,704.65,164q-33.25-49.62-66.5-99.25Q619.64,37.15,601.07,9.59c-1.07-1.6-2.52-3.08-2.6-5.2,2.09-1,2.51.73,3.19,1.63q34.13,45.61,68.19,91.27,22.28,29.83,44.58,59.64,69.49,93.1,139,186.22c31,41.52,61.78,83.17,93,124.51,7.9,10.46,12.25,22.46,17.31,34.17q31.3,72.47,62.25,145.09,34.25,79.9,68.53,159.79,36.74,85.63,73.49,171.25c4.79,11.17,9.62,22.32,14.38,33.51C1182.92,1012.87,1184,1014.31,1183.1,1016.11Z"/></g><g class="k"><path class="t" d="M596,1372.42c-.28-2.55,1.29-3.78,2.24-5.22q41.38-61.92,82.83-123.79,47.18-70.36,94.44-140.67L873,957.5l48.46-72.21c4.74-7.06,5-7,12.1-2.87q79.44,46.23,158.91,92.39,33.68,19.58,67.35,39.2c1.23.72,2.59,1.37,3.27,3-2.31.58-3.73-.85-5.28-1.61q-41-20.19-82-40.46-52.91-26-105.88-51.94c-10.17-5-20.49-9.67-30.53-14.89-4.56-2.37-7.35-1.91-10.41,2.4-18.52,26.06-37.26,52-55.93,77.92q-39.67,55.16-79.34,110.32-38.35,53.34-76.67,106.7-39.66,55.17-79.34,110.32-18.08,25.15-36.12,50.32C600,1368.27,598.79,1370.82,596,1372.42Z"/></g><g class="u"><path class="v" d="M1189.83,344.31v680.34c-8.1-4.5-15.92-8.81-23.7-13.18q-35.05-19.69-70.09-39.42-42.43-23.9-84.84-47.82c-25.1-14.12-50.14-28.37-75.43-42.14-6.09-3.32-8.46-6.86-8.44-14.15q.44-184,.09-368c0-5,1.52-7.52,5.94-10q87.79-49.72,175.32-99.9,39.26-22.4,78.57-44.73A20.33,20.33,0,0,1,1189.83,344.31Z"/></g><path class="w" d="M1272.13,816.3V775.85l38.78-38.41v40.08h90.18V754.33l-108.54-22.45v-.19l-20.41-4.08V593.83H1440v40.45l-38.78,38.41V632.61h-90.18v63.09L1412.4,717l27.65,6.31v93Z"/><path class="x" d="M1542.84,708.31v69.21h141.39l-38.78,38.78H1504.06V593.64h167v87.58Zm0-75.89v36l89.43-18.74V632.42Z"/><path class="y" d="M1756.59,677.51V816.3h-39V580.66l39,38.22v18.74L1884.8,610v67.91l-38.78,39V658.59Z"/><path class="z" d="M1940.1,756.18V559.13l39,39V748.39l28.76,28.95h62V592.72h39V816.3H2000.21Z"/><path class="aa" d="M2201.35,644.11V816.3h-38.78l-.19-133.22Zm-37.11-22.45v-66.8l39-38.22V582.7Z"/><path class="ab" d="M2433.09,593.46v40.45l-39,38.22V632.24h-90.36V777.52h90.36v-1.3l39-39v79H2264.8V593.46Z"/><path class="ac" d="M2526.24,708.31v69.21h141.39l-38.78,38.78H2487.46V593.64h167v87.58Zm0-75.89v36l89.43-18.74V632.42Z"/><path class="ad" d="M2752.79,723.9v58.45L2710.12,825V766.57Z"/><path class="ae" d="M2989.73,593.46v40.45l-39,38.22V632.24h-90.36V777.52h90.36v-1.3l39-39v79H2821.44V593.46Z"/><path class="af" d="M3201.81,816.3h-167V593.64h167ZM3163,777.52V632.42H3073.6v145.1Z"/><path class="ag" d="M3296.07,677.51V816.3h-39V580.66l39,38.22v18.74L3424.29,610v27.65L3552.5,610V816.3h-38.78V658.59l-89.43,18.93V816.3h-38.78V658.59Z"/><path class="ah" d="M1088.36,773.21v-30.8L1131,721.07v52.14h36.74v43.42H1131V921.46h-42.68V816.63H948.83v-249L991.51,525V773.21Z"/></g></svg>